<mxfile host="app.diagrams.net" modified="2021-11-01T15:11:00.414Z" agent="5.0 (Windows)" etag="yePKdmgoBsnp1yrPKmzv" version="15.5.6" type="github">
  <diagram name="Page-1" id="edf60f1a-56cd-e834-aa8a-f176f3a09ee4">
    <mxGraphModel dx="960" dy="576" grid="1" gridSize="10" guides="1" tooltips="1" connect="1" arrows="1" fold="1" page="1" pageScale="1" pageWidth="1100" pageHeight="850" background="none" math="0" shadow="0">
      <root>
        <mxCell id="0" />
        <mxCell id="1" parent="0" />
        <mxCell id="_PhLCO9Q2bOIfNgRdVM_-5" style="edgeStyle=orthogonalEdgeStyle;rounded=0;orthogonalLoop=1;jettySize=auto;html=1;exitX=0.5;exitY=1;exitDx=0;exitDy=0;entryX=0.5;entryY=0;entryDx=0;entryDy=0;" parent="1" source="_PhLCO9Q2bOIfNgRdVM_-1" target="_PhLCO9Q2bOIfNgRdVM_-14" edge="1">
          <mxGeometry relative="1" as="geometry" />
        </mxCell>
        <mxCell id="_PhLCO9Q2bOIfNgRdVM_-1" value="Разбор конф. файла." style="rounded=0;whiteSpace=wrap;html=1;" parent="1" vertex="1">
          <mxGeometry x="360" y="80" width="120" height="60" as="geometry" />
        </mxCell>
        <mxCell id="_PhLCO9Q2bOIfNgRdVM_-6" style="edgeStyle=orthogonalEdgeStyle;rounded=0;orthogonalLoop=1;jettySize=auto;html=1;exitX=0;exitY=0.5;exitDx=0;exitDy=0;entryX=0.5;entryY=0;entryDx=0;entryDy=0;" parent="1" source="_PhLCO9Q2bOIfNgRdVM_-2" target="_PhLCO9Q2bOIfNgRdVM_-19" edge="1">
          <mxGeometry relative="1" as="geometry">
            <mxPoint x="280" y="315" as="targetPoint" />
          </mxGeometry>
        </mxCell>
        <mxCell id="_PhLCO9Q2bOIfNgRdVM_-18" style="edgeStyle=orthogonalEdgeStyle;rounded=0;orthogonalLoop=1;jettySize=auto;html=1;exitX=0.5;exitY=1;exitDx=0;exitDy=0;" parent="1" source="_PhLCO9Q2bOIfNgRdVM_-2" target="_PhLCO9Q2bOIfNgRdVM_-16" edge="1">
          <mxGeometry relative="1" as="geometry" />
        </mxCell>
        <mxCell id="_PhLCO9Q2bOIfNgRdVM_-32" style="edgeStyle=orthogonalEdgeStyle;rounded=0;orthogonalLoop=1;jettySize=auto;html=1;exitX=0.5;exitY=1;exitDx=0;exitDy=0;entryX=0.5;entryY=0;entryDx=0;entryDy=0;" parent="1" source="_PhLCO9Q2bOIfNgRdVM_-2" target="_PhLCO9Q2bOIfNgRdVM_-30" edge="1">
          <mxGeometry relative="1" as="geometry">
            <mxPoint x="420" y="400" as="targetPoint" />
          </mxGeometry>
        </mxCell>
        <mxCell id="_PhLCO9Q2bOIfNgRdVM_-2" value="&lt;div&gt;Есть&lt;/div&gt;&lt;div&gt;decs ?&lt;br&gt;&lt;/div&gt;" style="rhombus;whiteSpace=wrap;html=1;" parent="1" vertex="1">
          <mxGeometry x="365" y="260" width="110" height="110" as="geometry" />
        </mxCell>
        <mxCell id="_PhLCO9Q2bOIfNgRdVM_-7" value="Нет" style="text;html=1;strokeColor=none;fillColor=none;align=center;verticalAlign=middle;whiteSpace=wrap;rounded=0;" parent="1" vertex="1">
          <mxGeometry x="310" y="290" width="40" height="20" as="geometry" />
        </mxCell>
        <mxCell id="_PhLCO9Q2bOIfNgRdVM_-8" value="Передача текста осуществляется массивом строк" style="rounded=0;whiteSpace=wrap;html=1;" parent="1" vertex="1">
          <mxGeometry x="140" y="10" width="120" height="60" as="geometry" />
        </mxCell>
        <mxCell id="_PhLCO9Q2bOIfNgRdVM_-20" style="edgeStyle=orthogonalEdgeStyle;rounded=0;orthogonalLoop=1;jettySize=auto;html=1;exitX=0;exitY=0.5;exitDx=0;exitDy=0;entryX=1;entryY=0.5;entryDx=0;entryDy=0;" parent="1" source="_PhLCO9Q2bOIfNgRdVM_-13" target="_PhLCO9Q2bOIfNgRdVM_-19" edge="1">
          <mxGeometry relative="1" as="geometry" />
        </mxCell>
        <mxCell id="_PhLCO9Q2bOIfNgRdVM_-13" value="Был достигнут конец файла?" style="rhombus;whiteSpace=wrap;html=1;" parent="1" vertex="1">
          <mxGeometry x="365" y="565" width="110" height="120" as="geometry" />
        </mxCell>
        <mxCell id="_PhLCO9Q2bOIfNgRdVM_-15" style="edgeStyle=orthogonalEdgeStyle;rounded=0;orthogonalLoop=1;jettySize=auto;html=1;exitX=0.5;exitY=1;exitDx=0;exitDy=0;entryX=0.5;entryY=0;entryDx=0;entryDy=0;" parent="1" source="_PhLCO9Q2bOIfNgRdVM_-14" target="_PhLCO9Q2bOIfNgRdVM_-2" edge="1">
          <mxGeometry relative="1" as="geometry" />
        </mxCell>
        <mxCell id="_PhLCO9Q2bOIfNgRdVM_-14" value="Читаем строку" style="rounded=0;whiteSpace=wrap;html=1;" parent="1" vertex="1">
          <mxGeometry x="360" y="170" width="120" height="60" as="geometry" />
        </mxCell>
        <mxCell id="_PhLCO9Q2bOIfNgRdVM_-21" style="edgeStyle=orthogonalEdgeStyle;rounded=0;orthogonalLoop=1;jettySize=auto;html=1;exitX=0.5;exitY=1;exitDx=0;exitDy=0;" parent="1" source="_PhLCO9Q2bOIfNgRdVM_-16" target="_PhLCO9Q2bOIfNgRdVM_-13" edge="1">
          <mxGeometry relative="1" as="geometry" />
        </mxCell>
        <mxCell id="_PhLCO9Q2bOIfNgRdVM_-16" value="Читаем строку" style="rounded=0;whiteSpace=wrap;html=1;" parent="1" vertex="1">
          <mxGeometry x="360" y="480" width="120" height="60" as="geometry" />
        </mxCell>
        <mxCell id="_PhLCO9Q2bOIfNgRdVM_-19" value="Выкинуть исключение. Invalid block section." style="rounded=0;whiteSpace=wrap;html=1;" parent="1" vertex="1">
          <mxGeometry x="170" y="595" width="120" height="60" as="geometry" />
        </mxCell>
        <mxCell id="_PhLCO9Q2bOIfNgRdVM_-22" value="Да" style="text;html=1;strokeColor=none;fillColor=none;align=center;verticalAlign=middle;whiteSpace=wrap;rounded=0;" parent="1" vertex="1">
          <mxGeometry x="310" y="605" width="40" height="20" as="geometry" />
        </mxCell>
        <mxCell id="_PhLCO9Q2bOIfNgRdVM_-24" value="" style="endArrow=classic;html=1;exitX=0.5;exitY=1;exitDx=0;exitDy=0;entryX=0.5;entryY=0;entryDx=0;entryDy=0;" parent="1" source="_PhLCO9Q2bOIfNgRdVM_-13" target="_PhLCO9Q2bOIfNgRdVM_-26" edge="1">
          <mxGeometry width="50" height="50" relative="1" as="geometry">
            <mxPoint x="390" y="755" as="sourcePoint" />
            <mxPoint x="420" y="735" as="targetPoint" />
          </mxGeometry>
        </mxCell>
        <mxCell id="_PhLCO9Q2bOIfNgRdVM_-25" value="Нет" style="text;html=1;strokeColor=none;fillColor=none;align=center;verticalAlign=middle;whiteSpace=wrap;rounded=0;" parent="1" vertex="1">
          <mxGeometry x="420" y="695" width="40" height="20" as="geometry" />
        </mxCell>
        <mxCell id="_PhLCO9Q2bOIfNgRdVM_-27" style="edgeStyle=orthogonalEdgeStyle;rounded=0;orthogonalLoop=1;jettySize=auto;html=1;exitX=1;exitY=0.5;exitDx=0;exitDy=0;entryX=0;entryY=0.5;entryDx=0;entryDy=0;" parent="1" source="_PhLCO9Q2bOIfNgRdVM_-26" target="_PhLCO9Q2bOIfNgRdVM_-35" edge="1">
          <mxGeometry relative="1" as="geometry">
            <mxPoint x="530" y="760" as="targetPoint" />
          </mxGeometry>
        </mxCell>
        <mxCell id="_PhLCO9Q2bOIfNgRdVM_-57" style="edgeStyle=orthogonalEdgeStyle;rounded=0;orthogonalLoop=1;jettySize=auto;html=1;exitX=0.5;exitY=1;exitDx=0;exitDy=0;entryX=0.5;entryY=0;entryDx=0;entryDy=0;" parent="1" source="_PhLCO9Q2bOIfNgRdVM_-26" target="_PhLCO9Q2bOIfNgRdVM_-56" edge="1">
          <mxGeometry relative="1" as="geometry" />
        </mxCell>
        <mxCell id="_PhLCO9Q2bOIfNgRdVM_-26" value="Нашли csed?" style="rhombus;whiteSpace=wrap;html=1;" parent="1" vertex="1">
          <mxGeometry x="365" y="710" width="110" height="100" as="geometry" />
        </mxCell>
        <mxCell id="_PhLCO9Q2bOIfNgRdVM_-28" value="Нет" style="text;html=1;strokeColor=none;fillColor=none;align=center;verticalAlign=middle;whiteSpace=wrap;rounded=0;" parent="1" vertex="1">
          <mxGeometry x="475" y="740" width="40" height="20" as="geometry" />
        </mxCell>
        <mxCell id="_PhLCO9Q2bOIfNgRdVM_-30" value="Создаем вектор Worker*-ов" style="rounded=0;whiteSpace=wrap;html=1;" parent="1" vertex="1">
          <mxGeometry x="360" y="390" width="120" height="60" as="geometry" />
        </mxCell>
        <mxCell id="_PhLCO9Q2bOIfNgRdVM_-34" value="Передача аргументов через vector&amp;lt;string&amp;gt;" style="rounded=0;whiteSpace=wrap;html=1;" parent="1" vertex="1">
          <mxGeometry x="270" y="10" width="120" height="60" as="geometry" />
        </mxCell>
        <mxCell id="_PhLCO9Q2bOIfNgRdVM_-38" style="edgeStyle=orthogonalEdgeStyle;rounded=0;orthogonalLoop=1;jettySize=auto;html=1;exitX=1;exitY=0.5;exitDx=0;exitDy=0;" parent="1" source="_PhLCO9Q2bOIfNgRdVM_-35" target="_PhLCO9Q2bOIfNgRdVM_-36" edge="1">
          <mxGeometry relative="1" as="geometry" />
        </mxCell>
        <mxCell id="_PhLCO9Q2bOIfNgRdVM_-35" value="Из строки получаем ID." style="rounded=0;whiteSpace=wrap;html=1;" parent="1" vertex="1">
          <mxGeometry x="510" y="730" width="100" height="60" as="geometry" />
        </mxCell>
        <mxCell id="_PhLCO9Q2bOIfNgRdVM_-37" style="edgeStyle=orthogonalEdgeStyle;rounded=0;orthogonalLoop=1;jettySize=auto;html=1;exitX=0.5;exitY=1;exitDx=0;exitDy=0;entryX=0.5;entryY=1;entryDx=0;entryDy=0;" parent="1" source="_PhLCO9Q2bOIfNgRdVM_-36" target="_PhLCO9Q2bOIfNgRdVM_-19" edge="1">
          <mxGeometry relative="1" as="geometry" />
        </mxCell>
        <mxCell id="_PhLCO9Q2bOIfNgRdVM_-43" style="edgeStyle=orthogonalEdgeStyle;rounded=0;orthogonalLoop=1;jettySize=auto;html=1;exitX=0.5;exitY=0;exitDx=0;exitDy=0;entryX=0.5;entryY=1;entryDx=0;entryDy=0;" parent="1" source="_PhLCO9Q2bOIfNgRdVM_-36" target="_PhLCO9Q2bOIfNgRdVM_-40" edge="1">
          <mxGeometry relative="1" as="geometry" />
        </mxCell>
        <mxCell id="_PhLCO9Q2bOIfNgRdVM_-36" value="Это число?" style="rhombus;whiteSpace=wrap;html=1;" parent="1" vertex="1">
          <mxGeometry x="630" y="720" width="80" height="80" as="geometry" />
        </mxCell>
        <mxCell id="_PhLCO9Q2bOIfNgRdVM_-39" value="нет" style="text;html=1;strokeColor=none;fillColor=none;align=center;verticalAlign=middle;whiteSpace=wrap;rounded=0;" parent="1" vertex="1">
          <mxGeometry x="630" y="800" width="40" height="20" as="geometry" />
        </mxCell>
        <mxCell id="_PhLCO9Q2bOIfNgRdVM_-45" style="edgeStyle=orthogonalEdgeStyle;rounded=0;orthogonalLoop=1;jettySize=auto;html=1;exitX=0.5;exitY=0;exitDx=0;exitDy=0;entryX=0.5;entryY=1;entryDx=0;entryDy=0;" parent="1" source="_PhLCO9Q2bOIfNgRdVM_-40" target="_PhLCO9Q2bOIfNgRdVM_-41" edge="1">
          <mxGeometry relative="1" as="geometry" />
        </mxCell>
        <mxCell id="_PhLCO9Q2bOIfNgRdVM_-40" value="Обрезать строку после =" style="rounded=0;whiteSpace=wrap;html=1;" parent="1" vertex="1">
          <mxGeometry x="550" y="580" width="120" height="60" as="geometry" />
        </mxCell>
        <mxCell id="_PhLCO9Q2bOIfNgRdVM_-46" style="edgeStyle=orthogonalEdgeStyle;rounded=0;orthogonalLoop=1;jettySize=auto;html=1;exitX=0.5;exitY=0;exitDx=0;exitDy=0;entryX=0.5;entryY=1;entryDx=0;entryDy=0;" parent="1" source="_PhLCO9Q2bOIfNgRdVM_-41" target="_PhLCO9Q2bOIfNgRdVM_-42" edge="1">
          <mxGeometry relative="1" as="geometry" />
        </mxCell>
        <mxCell id="_PhLCO9Q2bOIfNgRdVM_-55" style="edgeStyle=orthogonalEdgeStyle;rounded=0;orthogonalLoop=1;jettySize=auto;html=1;exitX=1;exitY=0.5;exitDx=0;exitDy=0;entryX=0;entryY=0.5;entryDx=0;entryDy=0;" parent="1" source="_PhLCO9Q2bOIfNgRdVM_-41" target="_PhLCO9Q2bOIfNgRdVM_-49" edge="1">
          <mxGeometry relative="1" as="geometry" />
        </mxCell>
        <mxCell id="_PhLCO9Q2bOIfNgRdVM_-41" value="Вызвать фабрику, передать обрезанную строку" style="rounded=0;whiteSpace=wrap;html=1;" parent="1" vertex="1">
          <mxGeometry x="550" y="500" width="120" height="60" as="geometry" />
        </mxCell>
        <mxCell id="_PhLCO9Q2bOIfNgRdVM_-47" style="edgeStyle=orthogonalEdgeStyle;rounded=0;orthogonalLoop=1;jettySize=auto;html=1;exitX=0.5;exitY=0;exitDx=0;exitDy=0;entryX=1;entryY=0.5;entryDx=0;entryDy=0;" parent="1" source="_PhLCO9Q2bOIfNgRdVM_-42" target="_PhLCO9Q2bOIfNgRdVM_-14" edge="1">
          <mxGeometry relative="1" as="geometry" />
        </mxCell>
        <mxCell id="_PhLCO9Q2bOIfNgRdVM_-42" value="В вектор[ID] положить результат фабрики." style="rounded=0;whiteSpace=wrap;html=1;" parent="1" vertex="1">
          <mxGeometry x="550" y="410" width="120" height="60" as="geometry" />
        </mxCell>
        <mxCell id="_PhLCO9Q2bOIfNgRdVM_-44" value="Да" style="text;html=1;strokeColor=none;fillColor=none;align=center;verticalAlign=middle;whiteSpace=wrap;rounded=0;" parent="1" vertex="1">
          <mxGeometry x="620" y="695" width="40" height="20" as="geometry" />
        </mxCell>
        <mxCell id="_PhLCO9Q2bOIfNgRdVM_-50" style="edgeStyle=orthogonalEdgeStyle;rounded=0;orthogonalLoop=1;jettySize=auto;html=1;exitX=0.5;exitY=1;exitDx=0;exitDy=0;entryX=1;entryY=1;entryDx=0;entryDy=0;" parent="1" source="_PhLCO9Q2bOIfNgRdVM_-49" target="_PhLCO9Q2bOIfNgRdVM_-39" edge="1">
          <mxGeometry relative="1" as="geometry">
            <Array as="points">
              <mxPoint x="750" y="820" />
            </Array>
          </mxGeometry>
        </mxCell>
        <mxCell id="_PhLCO9Q2bOIfNgRdVM_-53" style="edgeStyle=orthogonalEdgeStyle;rounded=0;orthogonalLoop=1;jettySize=auto;html=1;exitX=1;exitY=0.5;exitDx=0;exitDy=0;entryX=0;entryY=0.5;entryDx=0;entryDy=0;" parent="1" source="_PhLCO9Q2bOIfNgRdVM_-49" target="_PhLCO9Q2bOIfNgRdVM_-52" edge="1">
          <mxGeometry relative="1" as="geometry" />
        </mxCell>
        <mxCell id="_PhLCO9Q2bOIfNgRdVM_-49" value="Первое слово есть в списке блоков?" style="rhombus;whiteSpace=wrap;html=1;" parent="1" vertex="1">
          <mxGeometry x="700" y="465" width="100" height="130" as="geometry" />
        </mxCell>
        <mxCell id="_PhLCO9Q2bOIfNgRdVM_-51" value="Нет" style="text;html=1;strokeColor=none;fillColor=none;align=center;verticalAlign=middle;whiteSpace=wrap;rounded=0;" parent="1" vertex="1">
          <mxGeometry x="710" y="600" width="40" height="20" as="geometry" />
        </mxCell>
        <mxCell id="_PhLCO9Q2bOIfNgRdVM_-60" style="edgeStyle=orthogonalEdgeStyle;rounded=0;orthogonalLoop=1;jettySize=auto;html=1;exitX=0.5;exitY=1;exitDx=0;exitDy=0;entryX=0.5;entryY=0;entryDx=0;entryDy=0;" parent="1" source="_PhLCO9Q2bOIfNgRdVM_-52" target="_PhLCO9Q2bOIfNgRdVM_-58" edge="1">
          <mxGeometry relative="1" as="geometry" />
        </mxCell>
        <mxCell id="_PhLCO9Q2bOIfNgRdVM_-52" value="Обрезать первое слово, создать объект нужного класса и вернуть его." style="rounded=0;whiteSpace=wrap;html=1;" parent="1" vertex="1">
          <mxGeometry x="830" y="500" width="120" height="60" as="geometry" />
        </mxCell>
        <mxCell id="_PhLCO9Q2bOIfNgRdVM_-54" value="Да" style="text;html=1;strokeColor=none;fillColor=none;align=center;verticalAlign=middle;whiteSpace=wrap;rounded=0;" parent="1" vertex="1">
          <mxGeometry x="800" y="500" width="40" height="20" as="geometry" />
        </mxCell>
        <mxCell id="_PhLCO9Q2bOIfNgRdVM_-69" style="edgeStyle=orthogonalEdgeStyle;rounded=0;orthogonalLoop=1;jettySize=auto;html=1;exitX=0.5;exitY=1;exitDx=0;exitDy=0;entryX=0.5;entryY=0;entryDx=0;entryDy=0;" parent="1" source="_PhLCO9Q2bOIfNgRdVM_-56" target="_PhLCO9Q2bOIfNgRdVM_-68" edge="1">
          <mxGeometry relative="1" as="geometry" />
        </mxCell>
        <mxCell id="_PhLCO9Q2bOIfNgRdVM_-56" value="Создать массив чисел, заполнить его." style="rounded=0;whiteSpace=wrap;html=1;" parent="1" vertex="1">
          <mxGeometry x="360" y="840" width="120" height="60" as="geometry" />
        </mxCell>
        <mxCell id="_PhLCO9Q2bOIfNgRdVM_-65" style="edgeStyle=orthogonalEdgeStyle;rounded=0;orthogonalLoop=1;jettySize=auto;html=1;exitX=0.5;exitY=1;exitDx=0;exitDy=0;entryX=0.5;entryY=0;entryDx=0;entryDy=0;" parent="1" source="_PhLCO9Q2bOIfNgRdVM_-58" target="_PhLCO9Q2bOIfNgRdVM_-64" edge="1">
          <mxGeometry relative="1" as="geometry" />
        </mxCell>
        <mxCell id="_PhLCO9Q2bOIfNgRdVM_-58" value="Конструктор нашел неверный аргумент?" style="rhombus;whiteSpace=wrap;html=1;" parent="1" vertex="1">
          <mxGeometry x="820" y="575" width="140" height="135" as="geometry" />
        </mxCell>
        <mxCell id="_PhLCO9Q2bOIfNgRdVM_-61" value="Да" style="text;html=1;strokeColor=none;fillColor=none;align=center;verticalAlign=middle;whiteSpace=wrap;rounded=0;" parent="1" vertex="1">
          <mxGeometry x="850" y="715" width="40" height="20" as="geometry" />
        </mxCell>
        <mxCell id="_PhLCO9Q2bOIfNgRdVM_-64" value="Выкинуть исключение. Invalid argument." style="rounded=0;whiteSpace=wrap;html=1;" parent="1" vertex="1">
          <mxGeometry x="830" y="750" width="120" height="60" as="geometry" />
        </mxCell>
        <mxCell id="_PhLCO9Q2bOIfNgRdVM_-66" value="Выкинуть исключение. Invalid structure section." style="rounded=0;whiteSpace=wrap;html=1;" parent="1" vertex="1">
          <mxGeometry x="100" y="840" width="120" height="60" as="geometry" />
        </mxCell>
        <mxCell id="_PhLCO9Q2bOIfNgRdVM_-70" style="edgeStyle=orthogonalEdgeStyle;rounded=0;orthogonalLoop=1;jettySize=auto;html=1;exitX=0;exitY=0.5;exitDx=0;exitDy=0;entryX=1;entryY=0.5;entryDx=0;entryDy=0;" parent="1" source="_PhLCO9Q2bOIfNgRdVM_-68" target="_PhLCO9Q2bOIfNgRdVM_-66" edge="1">
          <mxGeometry relative="1" as="geometry" />
        </mxCell>
        <mxCell id="_PhLCO9Q2bOIfNgRdVM_-68" value="В ходе заполнения нашли что-то кроме -&amp;gt; и чисел?" style="rhombus;whiteSpace=wrap;html=1;" parent="1" vertex="1">
          <mxGeometry x="350" y="910" width="140" height="130" as="geometry" />
        </mxCell>
      </root>
    </mxGraphModel>
  </diagram>
</mxfile>
